<svg width="62" height="62" viewBox="0 0 62 62" fill="none" xmlns="http://www.w3.org/2000/svg">
    <path d="M47.983 0H13.167C5.89505 0 0 5.89505 0 13.167V47.983C0 55.2549 5.89505 61.1499 13.167 61.1499H47.983C55.2549 61.1499 61.1499 55.2549 61.1499 47.983V13.167C61.1499 5.89505 55.2549 0 47.983 0Z" fill="white" fill-opacity="0.95" />
    <path d="M15.1588 44.3597H20.8866V30.4495L12.7041 24.3125V41.905C12.7041 43.2633 13.8046 44.3597 15.1588 44.3597Z" fill="#4285F4" />
    <path d="M40.5244 44.3597H46.2522C47.6105 44.3597 48.707 43.2592 48.707 41.905V24.3125L40.5244 30.4495" fill="#34A853" />
    <path d="M40.5244 19.8114V30.4487L48.707 24.3117V21.0388C48.707 18.003 45.2416 16.2724 42.8155 18.093" fill="#FBBC04" />
    <path d="M20.8877 30.4498V19.8125L30.7067 27.1767L40.5258 19.8125V30.4498L30.7067 37.8141" fill="#EA4335" />
    <path d="M12.7041 21.0388V24.3117L20.8866 30.4487V19.8114L18.5955 18.093C16.1653 16.2724 12.7041 18.003 12.7041 21.0388Z" fill="#C5221F" />
</svg>