<svg width="215" height="186" viewBox="0 0 215 186" fill="none" xmlns="http://www.w3.org/2000/svg">
<g filter="url(#filter0_d_934_3265)">
<path d="M4 60.6502C4 52.5591 11.1545 46 19.98 46C28.8055 46 35.96 52.5591 35.96 60.6502V117.23C35.96 125.322 28.8055 131.881 19.98 131.881C11.1545 131.881 4 125.322 4 117.23V60.6502Z" fill="#0E1C2E"/>
<path d="M91.96 163.174C91.96 171.265 84.8055 177.824 75.98 177.824C67.1545 177.824 60 171.265 60 163.174L59.9999 14.6509C59.9999 6.55986 67.1544 0.00071301 75.9799 0.000712452C84.8055 0.000711894 91.9599 6.55984 91.9599 14.6509L91.96 163.174Z" fill="#0E1C2E"/>
<path d="M123 16.1658C123 7.23766 130.154 0 138.98 0C147.806 0 154.96 7.23766 154.96 16.1658L154.96 38.3937C154.96 47.3218 147.806 54.5595 138.98 54.5595C130.154 54.5595 123 47.3218 123 38.3937L123 16.1658Z" fill="#0E1C2E"/>
<path d="M123 106.65C123 98.5591 130.154 92 138.98 92C147.806 92 154.96 98.5591 154.96 106.65V163.23C154.96 171.322 147.806 177.881 138.98 177.881C130.154 177.881 123 171.322 123 163.23V106.65Z" fill="#EFA038"/>
<path d="M179 60.6502C179 52.5591 186.154 46 194.98 46C203.806 46 210.96 52.5591 210.96 60.6502V117.23C210.96 125.322 203.806 131.881 194.98 131.881C186.154 131.881 179 125.322 179 117.23V60.6502Z" fill="#0E1C2E"/>
<path d="M116.684 124C108.022 124 101 116.837 101 108C101 99.1634 108.022 92 116.684 92L138.316 92C146.978 92 154 99.1634 154 108C154 116.837 146.978 124 138.316 124L116.684 124Z" fill="#EFA038"/>
<path d="M75.4886 32C66.9345 32 60 24.8366 60 16C60 7.16345 66.9345 8.01366e-06 75.4886 7.36703e-06L138.511 2.60302e-06C147.066 1.95639e-06 154 7.16344 154 16C154 24.8366 147.066 32 138.511 32L75.4886 32Z" fill="#0E1C2E"/>
</g>
<defs>
<filter id="filter0_d_934_3265" x="0" y="0" width="214.96" height="185.881" filterUnits="userSpaceOnUse" color-interpolation-filters="sRGB">
<feFlood flood-opacity="0" result="BackgroundImageFix"/>
<feColorMatrix in="SourceAlpha" type="matrix" values="0 0 0 0 0 0 0 0 0 0 0 0 0 0 0 0 0 0 127 0" result="hardAlpha"/>
<feOffset dy="4"/>
<feGaussianBlur stdDeviation="2"/>
<feComposite in2="hardAlpha" operator="out"/>
<feColorMatrix type="matrix" values="0 0 0 0 0 0 0 0 0 0 0 0 0 0 0 0 0 0 0.25 0"/>
<feBlend mode="normal" in2="BackgroundImageFix" result="effect1_dropShadow_934_3265"/>
<feBlend mode="normal" in="SourceGraphic" in2="effect1_dropShadow_934_3265" result="shape"/>
</filter>
</defs>
</svg>
