<svg width="225" height="196" viewBox="0 0 225 196" fill="none" xmlns="http://www.w3.org/2000/svg">
<g filter="url(#filter0_d_1021_1998)">
<path d="M9 65.6502C9 57.5591 16.1545 51 24.98 51C33.8055 51 40.96 57.5591 40.96 65.6502V122.23C40.96 130.322 33.8055 136.881 24.98 136.881C16.1545 136.881 9 130.322 9 122.23V65.6502Z" fill="white"/>
<path d="M96.96 168.174C96.96 176.265 89.8055 182.824 80.98 182.824C72.1545 182.824 65 176.265 65 168.174L64.9999 19.6509C64.9999 11.5599 72.1544 5.00071 80.9799 5.00071C89.8055 5.00071 96.9599 11.5598 96.9599 19.6509L96.96 168.174Z" fill="white"/>
<path d="M128 21.1658C128 12.2377 135.154 5 143.98 5C152.806 5 159.96 12.2377 159.96 21.1658L159.96 43.3937C159.96 52.3218 152.806 59.5595 143.98 59.5595C135.154 59.5595 128 52.3218 128 43.3937L128 21.1658Z" fill="white"/>
<path d="M128 111.65C128 103.559 135.154 97 143.98 97C152.806 97 159.96 103.559 159.96 111.65V168.23C159.96 176.322 152.806 182.881 143.98 182.881C135.154 182.881 128 176.322 128 168.23V111.65Z" fill="#EFA038"/>
<path d="M184 65.6502C184 57.5591 191.154 51 199.98 51C208.806 51 215.96 57.5591 215.96 65.6502V122.23C215.96 130.322 208.806 136.881 199.98 136.881C191.154 136.881 184 130.322 184 122.23V65.6502Z" fill="white"/>
<path d="M121.684 129C113.022 129 106 121.837 106 113C106 104.163 113.022 97 121.684 97L143.316 97C151.978 97 159 104.163 159 113C159 121.837 151.978 129 143.316 129L121.684 129Z" fill="#EFA038"/>
<path d="M80.4886 37C71.9345 37 65 29.8366 65 21C65 12.1635 71.9345 5.00001 80.4886 5.00001L143.511 5C152.066 5 159 12.1634 159 21C159 29.8366 152.066 37 143.511 37L80.4886 37Z" fill="white"/>
</g>
<defs>
<filter id="filter0_d_1021_1998" x="0" y="0" width="224.96" height="195.881" filterUnits="userSpaceOnUse" color-interpolation-filters="sRGB">
<feFlood flood-opacity="0" result="BackgroundImageFix"/>
<feColorMatrix in="SourceAlpha" type="matrix" values="0 0 0 0 0 0 0 0 0 0 0 0 0 0 0 0 0 0 127 0" result="hardAlpha"/>
<feOffset dy="4"/>
<feGaussianBlur stdDeviation="4.5"/>
<feComposite in2="hardAlpha" operator="out"/>
<feColorMatrix type="matrix" values="0 0 0 0 0 0 0 0 0 0 0 0 0 0 0 0 0 0 0.6 0"/>
<feBlend mode="normal" in2="BackgroundImageFix" result="effect1_dropShadow_1021_1998"/>
<feBlend mode="normal" in="SourceGraphic" in2="effect1_dropShadow_1021_1998" result="shape"/>
</filter>
</defs>
</svg>
