<svg width="207" height="178" viewBox="0 0 207 178" fill="none" xmlns="http://www.w3.org/2000/svg">
<path d="M0 60.6502C0 52.5591 7.15449 46 15.98 46C24.8055 46 31.96 52.5591 31.96 60.6502V117.23C31.96 125.322 24.8055 131.881 15.98 131.881C7.15449 131.881 0 125.322 0 117.23V60.6502Z" fill="#2F3438"/>
<path d="M87.96 163.174C87.96 171.265 80.8055 177.824 71.98 177.824C63.1545 177.824 56 171.265 56 163.174L55.9999 14.6509C55.9999 6.55986 63.1544 0.00071301 71.9799 0.000712452C80.8055 0.000711894 87.9599 6.55984 87.9599 14.6509L87.96 163.174Z" fill="#2F3438"/>
<path d="M119 16.1658C119 7.23766 126.154 0 134.98 0C143.806 0 150.96 7.23766 150.96 16.1658L150.96 38.3937C150.96 47.3218 143.806 54.5595 134.98 54.5595C126.154 54.5595 119 47.3218 119 38.3937L119 16.1658Z" fill="#2F3438"/>
<path d="M119 106.65C119 98.5591 126.154 92 134.98 92C143.806 92 150.96 98.5591 150.96 106.65V163.23C150.96 171.322 143.806 177.881 134.98 177.881C126.154 177.881 119 171.322 119 163.23V106.65Z" fill="#EFA038"/>
<path d="M175 60.6502C175 52.5591 182.154 46 190.98 46C199.806 46 206.96 52.5591 206.96 60.6502V117.23C206.96 125.322 199.806 131.881 190.98 131.881C182.154 131.881 175 125.322 175 117.23V60.6502Z" fill="#2F3438"/>
<path d="M112.684 124C104.022 124 97 116.837 97 108C97 99.1634 104.022 92 112.684 92L134.316 92C142.978 92 150 99.1634 150 108C150 116.837 142.978 124 134.316 124L112.684 124Z" fill="#EFA038"/>
<path d="M71.4886 32C62.9345 32 56 24.8366 56 16C56 7.16345 62.9345 8.01366e-06 71.4886 7.36703e-06L134.511 2.60302e-06C143.066 1.95639e-06 150 7.16344 150 16C150 24.8366 143.066 32 134.511 32L71.4886 32Z" fill="#2F3438"/>
</svg>
