<svg width="47" height="28" viewBox="0 0 47 28" fill="none" xmlns="http://www.w3.org/2000/svg">
<rect width="47" height="28" rx="14" fill="#EDDCC6"/>
<g clip-path="url(#clip0_0_1)">
<path d="M33.5 18.3327C32.4226 18.3327 31.3892 17.8761 30.6274 17.0635C29.8655 16.2508 29.4375 15.1486 29.4375 13.9993C29.4375 12.8501 29.8655 11.7479 30.6274 10.9352C31.3892 10.1226 32.4226 9.66602 33.5 9.66602C34.5774 9.66602 35.6108 10.1226 36.3726 10.9352C37.1345 11.7479 37.5625 12.8501 37.5625 13.9993C37.5625 15.1486 37.1345 16.2508 36.3726 17.0635C35.6108 17.8761 34.5774 18.3327 33.5 18.3327Z" fill="#2F3438"/>
<path d="M29.0375 18.7607L29.1187 18.674M29.1187 9.32732L29.0375 9.24065M37.9625 18.7607L37.8813 18.674M33.5 7.38732V7.33398M33.5 20.6673V20.614M39.7 14.0007H39.75M27.25 14.0007H27.3M37.8813 9.32732L37.9625 9.24065" stroke="#2F3438" stroke-width="2" stroke-linecap="round" stroke-linejoin="round"/>
</g>
<defs>
<clipPath id="clip0_0_1">
<rect width="15" height="16" fill="white" transform="matrix(-1 0 0 1 41 6)"/>
</clipPath>
</defs>
</svg>
