<svg width="330" height="877" viewBox="0 0 330 877" fill="none" xmlns="http://www.w3.org/2000/svg">
<g clip-path="url(#clip0_963_2011)">
<g style="mix-blend-mode:color-dodge" opacity="0.7" clip-path="url(#clip1_963_2011)">
<path d="M84.8203 -9.68861L78.5242 22.2181C72.2282 54.1248 59.6361 117.938 54.1799 180.631C48.6502 243.335 50.3298 304.907 66.2813 364.238C82.2327 423.569 112.603 480.635 136.867 538.66C161.205 596.674 179.511 655.635 180.676 717.287C181.767 778.952 165.791 843.297 157.729 875.481L149.741 907.653L477.845 856.124L473.106 825.95C468.367 795.777 458.889 735.429 449.412 675.082C439.934 614.735 430.456 554.387 420.979 494.04C411.501 433.693 402.023 373.345 392.546 312.998C383.068 252.65 373.59 192.303 364.113 131.956C354.635 71.6082 345.157 11.2608 340.418 -18.9129L335.68 -49.0865L84.8203 -9.68861Z" fill="#6C6F73"/>
<path d="M203.624 -17.8904L196.739 14.1088C189.781 46.1195 176.012 110.118 177.25 171.759C178.489 233.401 194.881 292.662 215.982 351.184C237.084 409.706 263.04 467.465 271.635 527.951C280.23 588.437 271.61 651.627 274.835 712.956C278.059 774.286 293.128 833.755 300.736 863.478L308.27 893.213L543.681 856.241L538.942 826.067C534.203 795.894 524.725 735.546 515.248 675.199C505.77 614.852 496.292 554.504 486.815 494.157C477.337 433.809 467.859 373.462 458.382 313.115C448.904 252.767 439.426 192.42 429.949 132.073C420.471 71.7251 410.993 11.3777 406.255 -18.796L401.516 -48.9696L203.624 -17.8904Z" fill="#84838B"/>
</g>
</g>
<defs>
<clipPath id="clip0_963_2011">
<rect width="330" height="877" fill="white"/>
</clipPath>
<clipPath id="clip1_963_2011">
<rect width="367.125" height="916.306" fill="white" transform="matrix(0.987891 -0.15515 -0.15515 -0.987891 115.165 913.084)"/>
</clipPath>
</defs>
</svg>
