<svg width="1440" height="180" viewBox="0 0 1440 180" fill="none" xmlns="http://www.w3.org/2000/svg">
<g style="mix-blend-mode:color-dodge" opacity="0.7" clip-path="url(#clip0_948_2036)">
<path d="M1440 68L1399.95 74.7C1360.05 81.3 1279.95 94.7 1200 92.3C1120.05 90 1039.95 72 960 73.3C880.05 74.7 799.95 95.3 720 111.8C640.05 128.3 559.95 140.7 480 138.2C400.05 135.7 319.95 118.3 240 115C160.05 111.7 79.9501 122.3 40.05 127.7L0 133V355H40.05C79.9501 355 160.05 355 240 355C319.95 355 400.05 355 480 355C559.95 355 640.05 355 720 355C799.95 355 880.05 355 960 355C1039.95 355 1120.05 355 1200 355C1279.95 355 1360.05 355 1399.95 355H1440V68Z" fill="#6C6F73"/>
<path d="M0 151.886L40.05 154.686C79.95 157.586 160.05 163.186 240 159.686C319.95 156.186 400.05 143.586 480 143.686C559.95 143.886 640.05 156.886 720 151.186C799.95 145.586 880.05 121.186 960 109.886C1039.95 98.5864 1120.05 100.186 1200 109.886C1279.95 119.586 1360.05 137.186 1399.95 146.086L1440 154.886V352.886H1399.95C1360.05 352.886 1279.95 352.886 1200 352.886C1120.05 352.886 1039.95 352.886 960 352.886C880.05 352.886 799.95 352.886 720 352.886C640.05 352.886 559.95 352.886 480 352.886C400.05 352.886 319.95 352.886 240 352.886C160.05 352.886 79.95 352.886 40.05 352.886H0V151.886Z" fill="#84838B"/>
<path d="M0 179L40.05 177.2C79.95 175.3 160.05 156.9 240 157C399.73 168.822 480 177.199 720 157.001C848 157.001 880.05 170.2 960 174C1101.52 180.904 1144.16 144.059 1286.5 133C1338.73 129.722 1388.42 139.769 1440 145.5V227.2H1399.95C1360.05 227.2 1279.95 227.2 1200 227.2C1120.05 227.2 1039.95 227.2 960 227.2C880.05 227.2 799.95 227.2 720 227.2C640.05 227.2 559.95 227.2 480 227.2C400.05 227.2 319.95 227.2 240 227.2C160.05 227.2 79.95 227.2 40.05 227.2H0V179Z" fill="#C9C0B4"/>
</g>
<defs>
<clipPath id="clip0_948_2036">
<rect width="1440" height="180" fill="white"/>
</clipPath>
</defs>
</svg>
