<svg width="330" height="877" viewBox="0 0 330 877" fill="none" xmlns="http://www.w3.org/2000/svg">
<g clip-path="url(#clip0_963_2004)">
<g opacity="0.7" clip-path="url(#clip1_963_2004)">
<path d="M90.0361 -2.45973L83.7777 29.2561C77.5193 60.9719 65.0026 124.404 59.579 186.721C54.0823 249.051 55.7519 310.254 71.608 369.23C87.464 428.206 117.653 484.93 141.772 542.608C165.964 600.275 184.16 658.883 185.318 720.167C186.403 781.463 170.522 845.423 162.509 877.414L154.568 909.394L480.709 858.173L475.999 828.18C471.288 798.187 461.867 738.2 452.446 678.214C443.025 618.228 433.604 558.241 424.183 498.255C414.762 438.269 405.341 378.282 395.92 318.296C386.499 258.31 377.079 198.323 367.658 138.337C358.237 78.3507 348.816 18.3644 344.105 -11.6288L339.395 -41.6219L90.0361 -2.45973Z" fill="#D7D0C7"/>
<path d="M208.129 -10.6132L201.285 21.1945C194.369 53.0137 180.682 116.629 181.913 177.902C183.144 239.174 199.439 298.081 220.413 356.253C241.388 414.425 267.189 471.839 275.733 531.963C284.276 592.087 275.708 654.898 278.914 715.861C282.119 776.823 297.097 835.937 304.66 865.482L312.149 895.039L546.151 858.288L541.441 828.295C536.73 798.302 527.309 738.316 517.888 678.329C508.467 618.343 499.046 558.357 489.625 498.37C480.205 438.384 470.784 378.398 461.363 318.411C451.942 258.425 442.521 198.439 433.1 138.452C423.679 78.4661 414.258 18.4798 409.547 -11.5134L404.837 -41.5065L208.129 -10.6132Z" fill="#84838B"/>
</g>
</g>
<defs>
<clipPath id="clip0_963_2004">
<rect width="330" height="877" fill="white"/>
</clipPath>
<clipPath id="clip1_963_2004">
<rect width="364.929" height="910.824" fill="white" transform="matrix(0.987891 -0.15515 -0.15515 -0.987891 120.199 914.791)"/>
</clipPath>
</defs>
</svg>
