<svg width="330" height="1080" viewBox="0 0 330 1080" fill="none" xmlns="http://www.w3.org/2000/svg">
<g clip-path="url(#clip0_963_2004)">
<path d="M85.4378 -29.7068L79.3327 9.70614C73.2276 49.1191 61.0174 127.945 55.9004 205.428C50.7102 282.925 52.6864 359.065 68.849 432.518C85.0116 505.972 115.507 576.712 139.933 648.602C164.431 720.477 182.934 793.488 184.398 869.725C185.79 945.975 170.216 1025.44 162.355 1065.18L154.568 1104.91L480.709 1043.16L475.845 1005.83C470.982 968.491 461.254 893.819 451.527 819.146C441.799 744.474 432.072 669.802 422.344 595.13C412.616 520.457 402.889 445.785 393.161 371.113C383.434 296.441 373.706 221.769 363.979 147.096C354.251 72.4241 344.524 -2.24822 339.66 -39.5843L334.796 -76.9204L85.4378 -29.7068Z" fill="#D7D0C7"/>
<path d="M208.129 -4.23779L201.285 34.1093C194.369 72.4703 180.682 149.165 181.913 223.034C183.144 296.904 199.439 367.921 220.413 438.053C241.388 508.184 267.189 577.402 275.733 649.887C284.276 722.372 275.708 798.097 278.914 871.593C282.119 945.089 297.097 1016.36 304.66 1051.98L312.149 1087.61L546.151 1043.3L541.441 1007.14C536.73 970.984 527.309 898.665 517.888 826.346C508.467 754.027 499.046 681.708 489.625 609.389C480.205 537.07 470.784 464.75 461.363 392.431C451.942 320.112 442.521 247.793 433.1 175.474C423.679 103.155 414.258 30.8364 409.547 -5.32307L404.837 -41.4826L208.129 -4.23779Z" fill="#84838B"/>
</g>
<defs>
<clipPath id="clip0_963_2004">
<rect width="330" height="1080" fill="white"/>
</clipPath>
</defs>
</svg>
