<svg width="330" height="1080" viewBox="0 0 330 1080" fill="none" xmlns="http://www.w3.org/2000/svg">
<g clip-path="url(#clip0_963_2011)">
<path d="M84.8203 -1.07143L78.5242 37.814C72.2282 76.6994 59.6361 154.47 54.1799 230.875C48.6502 307.294 50.3298 382.334 66.2813 454.641C82.2327 526.949 112.603 596.497 136.867 667.213C161.205 737.915 179.511 809.772 180.676 884.91C181.767 960.062 165.791 1038.48 157.729 1077.7L149.741 1116.91L477.845 1054.11L473.106 1017.34C468.367 980.567 458.889 907.02 449.412 833.473C439.934 759.927 430.456 686.38 420.979 612.833C411.501 539.287 402.023 465.74 392.546 392.193C383.068 318.647 373.59 245.1 364.113 171.553C354.635 98.0068 345.157 24.4601 340.418 -12.3132L335.68 -49.0865L84.8203 -1.07143Z" fill="#6C6F73"/>
<path d="M203.624 -11.0678L196.739 27.9303C189.781 66.9425 176.012 144.939 177.25 220.062C178.489 295.186 194.881 367.409 215.982 438.731C237.084 510.053 263.04 580.446 271.635 654.161C280.23 727.877 271.61 804.887 274.835 879.631C278.059 954.374 293.128 1026.85 300.736 1063.08L308.27 1099.31L543.681 1054.26L538.942 1017.48C534.203 980.708 524.725 907.162 515.248 833.615C505.77 760.069 496.292 686.522 486.815 612.975C477.337 539.429 467.859 465.882 458.382 392.335C448.904 318.789 439.426 245.242 429.949 171.695C420.471 98.1486 410.993 24.6019 406.255 -12.1715L401.516 -48.9448L203.624 -11.0678Z" fill="#84838B"/>
</g>
<defs>
<clipPath id="clip0_963_2011">
<rect width="330" height="1080" fill="white"/>
</clipPath>
</defs>
</svg>
